<?xml version="1.0" encoding="utf-8"?>
<!-- Generator: Adobe Illustrator 26.3.1, SVG Export Plug-In . SVG Version: 6.00 Build 0)  -->
<svg version="1.1" id="Layer_1" xmlns="http://www.w3.org/2000/svg" xmlns:xlink="http://www.w3.org/1999/xlink" x="0px" y="0px"
	 viewBox="0 0 504 144" style="enable-background:new 0 0 504 144;" xml:space="preserve">
<style type="text/css">
	.st0{clip-path:url(#SVGID_00000063600544495169516720000006825666803728170411_);}
	.st1{fill:#03989E;}
	.st2{clip-path:url(#SVGID_00000093170008115257390090000013318289360742096299_);}
	.st3{fill:#FF66C4;}
	.st4{clip-path:url(#SVGID_00000064333313225112515290000000386080849975743122_);}
	.st5{clip-path:url(#SVGID_00000104697344244290081660000010744996777201129115_);}
	.st6{clip-path:url(#SVGID_00000081619660384358623900000002546996826602043786_);}
</style>
<g>
	<defs>
		<rect id="SVGID_1_" x="52" y="72.1" width="32.3" height="43.2"/>
	</defs>
	<clipPath id="SVGID_00000052094748215151250710000013828533990725130924_">
		<use xlink:href="#SVGID_1_"  style="overflow:visible;"/>
	</clipPath>
	<g style="clip-path:url(#SVGID_00000052094748215151250710000013828533990725130924_);">
		<path class="st1" d="M77.1,115.5H58.6c-3.6,0-6.5-2.9-6.5-6.5v-8.9h4.3v8.9c0,1.2,1,2.2,2.2,2.2h18.4c1.2,0,2.2-1,2.2-2.2V73.3
			h4.3V109C83.6,112.6,80.7,115.5,77.1,115.5z"/>
	</g>
</g>
<g>
	<defs>
		<rect id="SVGID_00000156559135967638395500000008150173382716487860_" x="52" y="31" width="32.3" height="42.4"/>
	</defs>
	<clipPath id="SVGID_00000057844502901901450420000012157149865017979052_">
		<use xlink:href="#SVGID_00000156559135967638395500000008150173382716487860_"  style="overflow:visible;"/>
	</clipPath>
	<g style="clip-path:url(#SVGID_00000057844502901901450420000012157149865017979052_);">
		<path class="st3" d="M56.5,73.3h-4.3V37.6c0-3.6,2.9-6.5,6.5-6.5h18.4c3.6,0,6.5,2.9,6.5,6.5v8.9h-4.3v-8.9c0-1.2-1-2.2-2.2-2.2
			H58.6c-1.2,0-2.2,1-2.2,2.2V73.3z"/>
	</g>
</g>
<g>
	<defs>
		<rect id="SVGID_00000103982921886405575510000004488308692681192098_" x="25.6" y="56.6" width="43.2" height="33.7"/>
	</defs>
	<clipPath id="SVGID_00000047036367155298362880000002289319169075720114_">
		<use xlink:href="#SVGID_00000103982921886405575510000004488308692681192098_"  style="overflow:visible;"/>
	</clipPath>
	<g style="clip-path:url(#SVGID_00000047036367155298362880000002289319169075720114_);">
		<path class="st3" d="M67.9,89H32.1c-3.6,0-6.5-2.9-6.5-6.5V64.1c0-3.6,2.9-6.5,6.5-6.5h8.9v4.3h-8.9c-1.2,0-2.2,1-2.2,2.2v18.4
			c0,1.2,1,2.2,2.2,2.2h35.7V89z"/>
	</g>
</g>
<g>
	<defs>
		<rect id="SVGID_00000045609984718357276960000014737524841115123353_" x="67.4" y="56.6" width="42.4" height="33.7"/>
	</defs>
	<clipPath id="SVGID_00000051356846145173627830000009607223557410649784_">
		<use xlink:href="#SVGID_00000045609984718357276960000014737524841115123353_"  style="overflow:visible;"/>
	</clipPath>
	<g style="clip-path:url(#SVGID_00000051356846145173627830000009607223557410649784_);">
		<path class="st1" d="M103.6,89h-8.9v-4.3h8.9c1.2,0,2.2-1,2.2-2.2V64.1c0-1.2-1-2.2-2.2-2.2H67.9v-4.3h35.7c3.6,0,6.5,2.9,6.5,6.5
			v18.4C110.1,86.1,107.2,89,103.6,89z"/>
	</g>
</g>
<g transform="matrix(1, 0, 0, 1, 109, 158)">
	<g>
		<defs>
			<rect id="SVGID_00000165223884159222982150000003800572549874023351_" x="31.4" y="-125.2" width="350.9" height="82.8"/>
		</defs>
		<clipPath id="SVGID_00000104694136790203775860000016152754634544163503_">
			<use xlink:href="#SVGID_00000165223884159222982150000003800572549874023351_"  style="overflow:visible;"/>
		</clipPath>
		<g style="clip-path:url(#SVGID_00000104694136790203775860000016152754634544163503_);">
			<g>
				<g transform="translate(0.597864, 20.671122)">
					<g>
						<path class="st3" d="M38.1-142.2c6,0,9.1,2.3,9.1,7c0,1.9-0.6,3.6-1.7,4.8c-1.1,1.3-2.7,2-4.6,2.1l8,11.3h-3.4L37.8-128h-0.7
							v11.1h-2.8v-25.3H38.1z M37.1-130.5h1.2c2,0,3.5-0.4,4.5-1.1c1-0.7,1.5-1.9,1.5-3.4c0-1.7-0.5-2.9-1.5-3.5c-1-0.7-2.4-1-4.3-1
							h-1.5V-130.5z"/>
					</g>
				</g>
			</g>
			<g>
				<g transform="translate(17.142938, 20.671122)">
					<g>
						<path class="st3" d="M54-142.2v2.6H43.7v7.5h10v2.6h-10v9.9H54v2.6H40.9v-25.3H54z"/>
					</g>
				</g>
			</g>
			<g>
				<g transform="translate(33.496747, 20.671122)">
					<g>
						<path class="st3" d="M50.3-142.2v22.7h7v2.6h-9.8v-25.3H50.3z"/>
					</g>
				</g>
			</g>
			<g>
				<g transform="translate(46.049088, 20.671122)">
					<g>
						<path class="st3" d="M55.5-142.2v25.3h-2.8v-25.3H55.5z"/>
					</g>
				</g>
			</g>
			<g>
				<g transform="translate(55.349863, 20.671122)">
					<g>
						<path class="st3" d="M65.7-143.4L77-116.9h-3.1l-3-7.2H60.1l-3,7.2H54L65.7-143.4z M61.3-126.7h8.6l-4.2-10.1L61.3-126.7z"/>
					</g>
				</g>
			</g>
			<g>
				<g transform="translate(75.648589, 20.671122)">
					<g>
						<path class="st3" d="M64.7-143.3l19.7,20.7v-19.6h2.8v26.5l-19.7-20.6v19.5h-2.8V-143.3z"/>
					</g>
				</g>
			</g>
			<g>
				<g transform="translate(99.174976, 20.671122)">
					<g>
						<path class="st3" d="M86.9-142.2v2.6h-6.2v22.7h-2.8v-22.7h-6.1v-2.6H86.9z"/>
					</g>
				</g>
			</g>
			<g>
				<g transform="translate(124.949097, 20.671122)">
					<g>
						<path class="st3" d="M87.7-143.6l9.2,21.2l9.2-21.2l5.1,26.7h-2.9l-3.3-17.1h-0.1l-8.2,18.1L88.8-134h-0.1l-3.2,17.1h-2.9
							L87.7-143.6z"/>
					</g>
				</g>
			</g>
			<g>
				<g transform="translate(149.957827, 20.671122)">
					<g>
						<path class="st3" d="M107.7-142.2v2.6H97.3v7.5h10v2.6h-10v9.9h10.3v2.6H94.5v-25.3H107.7z"/>
					</g>
				</g>
			</g>
			<g>
				<g transform="translate(166.311628, 20.671122)">
					<g>
						<path class="st3" d="M106.5-142.2c2.3,0,4.3,0.4,6,1.1c1.7,0.7,3.1,1.7,4.2,2.9c1.1,1.2,2,2.5,2.5,4c0.5,1.5,0.8,3.1,0.8,4.8
							c0,2.2-0.5,4.2-1.5,6.1c-1,1.9-2.5,3.4-4.4,4.6c-1.9,1.2-4.5,1.8-7.6,1.8h-5.3v-25.3H106.5z M106.6-119.5
							c1.5,0,2.9-0.2,4.2-0.7c1.3-0.5,2.4-1.2,3.3-2.1c1-0.9,1.7-2,2.2-3.3c0.5-1.3,0.8-2.6,0.8-4c0-1.8-0.4-3.5-1.2-5
							c-0.8-1.5-2-2.7-3.5-3.6c-1.5-0.9-3.5-1.4-6.1-1.4h-2.4v20.1H106.6z"/>
					</g>
				</g>
			</g>
			<g>
				<g transform="translate(186.108277, 20.671122)">
					<g>
						<path class="st3" d="M112-142.2v25.3h-2.8v-25.3H112z"/>
					</g>
				</g>
			</g>
			<g>
				<g transform="translate(195.409061, 20.671122)">
					<g>
						<path class="st3" d="M132.2-136.7c-1.1-1.1-2.3-1.9-3.6-2.5c-1.3-0.6-2.7-0.9-4.1-0.9c-1.8,0-3.5,0.5-5.1,1.4
							c-1.6,1-2.9,2.2-3.8,3.9c-0.9,1.6-1.4,3.3-1.4,5.2c0,1.8,0.5,3.5,1.4,5.2c0.9,1.6,2.2,2.9,3.8,3.9c1.6,1,3.3,1.4,5.1,1.4
							c1.4,0,2.7-0.3,4.1-0.9c1.3-0.6,2.5-1.4,3.6-2.5v3.5c-1.1,0.8-2.3,1.4-3.6,1.8c-1.3,0.4-2.6,0.7-4,0.7c-2.2,0-4.4-0.6-6.4-1.7
							c-2.1-1.1-3.7-2.7-4.9-4.7c-1.2-2-1.8-4.2-1.8-6.6c0-2.4,0.6-4.6,1.8-6.6c1.2-2,2.8-3.6,4.9-4.8c2-1.2,4.2-1.8,6.6-1.8
							c1.4,0,2.8,0.2,4.2,0.7c1.4,0.5,2.5,1.1,3.4,1.8V-136.7z"/>
					</g>
				</g>
			</g>
			<g>
				<g transform="translate(216.138126, 20.671122)">
					<g>
						<path class="st3" d="M130.6-143.4l11.4,26.5h-3.1l-3-7.2H125l-3,7.2h-3.1L130.6-143.4z M126.2-126.7h8.6l-4.2-10.1
							L126.2-126.7z"/>
					</g>
				</g>
			</g>
			<g>
				<g transform="translate(236.436868, 20.671122)">
					<g>
						<path class="st3" d="M132.3-142.2v22.7h7v2.6h-9.8v-25.3H132.3z"/>
					</g>
				</g>
			</g>
			<g>
				<g transform="translate(0.597864, 53.779374)">
					<g>
						<path class="st1" d="M38.1-128.8c6,0,9.1,2.3,9.1,7c0,1.9-0.6,3.6-1.7,4.8c-1.1,1.3-2.7,2-4.6,2.1l8,11.3h-3.4l-7.7-11.1h-0.7
							v11.1h-2.8v-25.3H38.1z M37.1-117.1h1.2c2,0,3.5-0.4,4.5-1.1c1-0.7,1.5-1.9,1.5-3.4c0-1.7-0.5-2.9-1.5-3.5c-1-0.7-2.4-1-4.3-1
							h-1.5V-117.1z"/>
					</g>
				</g>
			</g>
			<g>
				<g transform="translate(17.142938, 53.779374)">
					<g>
						<path class="st1" d="M54-128.8v2.6H43.7v7.5h10v2.6h-10v9.9H54v2.6H40.9v-25.3H54z"/>
					</g>
				</g>
			</g>
			<g>
				<g transform="translate(33.496747, 53.779374)">
					<g>
						<path class="st1" d="M47.7-129.9l19.7,20.7v-19.6h2.8v26.5L50.5-123v19.5h-2.8V-129.9z"/>
					</g>
				</g>
			</g>
			<g>
				<g transform="translate(57.023135, 53.779374)">
					<g>
						<path class="st1" d="M69.9-128.8v2.6h-6.2v22.7h-2.8v-22.7h-6.1v-2.6H69.9z"/>
					</g>
				</g>
			</g>
			<g>
				<g transform="translate(71.846793, 53.779374)">
					<g>
						<path class="st1" d="M72.3-130.1l11.4,26.5h-3.1l-3-7.2H66.8l-3,7.2h-3.1L72.3-130.1z M67.9-113.3h8.6l-4.2-10.1L67.9-113.3z"
							/>
					</g>
				</g>
			</g>
			<g>
				<g transform="translate(92.145519, 53.779374)">
					<g>
						<path class="st1" d="M74-128.8v22.7h7v2.6h-9.8v-25.3H74z"/>
					</g>
				</g>
			</g>
			<g>
				<g transform="translate(104.69786, 53.779374)">
					<g>
						<path class="st1" d="M87.7-123.9c-0.6-1-1.2-1.7-1.9-2.1c-0.7-0.4-1.5-0.6-2.5-0.6c-1.2,0-2.2,0.4-3,1.1
							c-0.8,0.8-1.2,1.7-1.2,2.8c0,0.8,0.3,1.6,1,2.2c0.7,0.6,1.5,1.1,2.4,1.5c0.9,0.4,1.8,0.8,2.5,1.1c0.8,0.3,1.6,0.8,2.7,1.4
							c1,0.6,1.8,1.4,2.3,2.3c0.5,0.9,0.8,2,0.8,3.2c0,1.4-0.4,2.7-1.1,3.9c-0.7,1.2-1.6,2.2-2.9,2.9c-1.2,0.7-2.6,1.1-4,1.1
							c-2,0-3.7-0.6-5.1-1.8c-1.4-1.2-2.3-2.8-2.8-4.8l2.8-0.8c0.2,1.4,0.8,2.5,1.7,3.4c0.9,0.9,2.1,1.3,3.4,1.3
							c1.4,0,2.6-0.5,3.6-1.4c1-1,1.6-2.1,1.6-3.5c0-1.2-0.4-2.2-1.2-3c-0.8-0.8-2.2-1.6-4.3-2.4c-2.1-0.8-3.6-1.8-4.7-2.8
							c-1-1-1.6-2.4-1.6-4c0-1.9,0.7-3.4,2.1-4.6c1.4-1.2,3.1-1.8,5-1.8c1.4,0,2.7,0.3,3.8,1c1.1,0.7,2,1.7,2.7,2.9L87.7-123.9z"/>
					</g>
				</g>
			</g>
		</g>
	</g>
</g>
</svg>
