<svg xmlns="http://www.w3.org/2000/svg" xmlns:xlink="http://www.w3.org/1999/xlink" width="500" zoomAndPan="magnify" viewBox="0 0 375 374.999991" height="500" preserveAspectRatio="xMidYMid meet" version="1.0"><defs><g/><clipPath id="45d72aa45b"><path d="M 46 186 L 69 186 L 69 216.78125 L 46 216.78125 Z M 46 186 " clip-rule="nonzero"/></clipPath><clipPath id="5e49032a52"><path d="M 46 156.78125 L 69 156.78125 L 69 187 L 46 187 Z M 46 156.78125 " clip-rule="nonzero"/></clipPath><clipPath id="aa5878b488"><path d="M 27.199219 175 L 58 175 L 58 199 L 27.199219 199 Z M 27.199219 175 " clip-rule="nonzero"/></clipPath><clipPath id="ad4f94759a"><path d="M 57 175 L 87.199219 175 L 87.199219 199 L 57 199 Z M 57 175 " clip-rule="nonzero"/></clipPath><clipPath id="a316a6d114"><rect x="0" width="250" y="0" height="59"/></clipPath></defs><rect x="-37.5" width="450" fill="#ffffff" y="-37.499999" height="449.999989" fill-opacity="1"/><rect x="-37.5" width="450" fill="#ffffff" y="-37.499999" height="449.999989" fill-opacity="1"/><g clip-path="url(#45d72aa45b)"><path fill="#03989e" d="M 63.863281 216.964844 L 50.730469 216.964844 C 48.199219 216.964844 46.125 214.890625 46.125 212.355469 L 46.125 205.980469 L 49.195312 205.980469 L 49.195312 212.355469 C 49.195312 213.199219 49.886719 213.890625 50.730469 213.890625 L 63.863281 213.890625 C 64.710938 213.890625 65.402344 213.199219 65.402344 212.355469 L 65.402344 186.886719 L 68.472656 186.886719 L 68.472656 212.355469 C 68.472656 214.890625 66.414062 216.964844 63.863281 216.964844 Z M 63.863281 216.964844 " fill-opacity="1" fill-rule="nonzero"/></g><g clip-path="url(#5e49032a52)"><path fill="#ff66c4" d="M 49.195312 186.886719 L 46.125 186.886719 L 46.125 161.421875 C 46.125 158.886719 48.199219 156.8125 50.730469 156.8125 L 63.863281 156.8125 C 66.398438 156.8125 68.472656 158.886719 68.472656 161.421875 L 68.472656 167.796875 L 65.402344 167.796875 L 65.402344 161.421875 C 65.402344 160.578125 64.710938 159.886719 63.863281 159.886719 L 50.730469 159.886719 C 49.886719 159.886719 49.195312 160.578125 49.195312 161.421875 Z M 49.195312 186.886719 " fill-opacity="1" fill-rule="nonzero"/></g><g clip-path="url(#aa5878b488)"><path fill="#ff66c4" d="M 57.304688 198.070312 L 31.839844 198.070312 C 29.304688 198.070312 27.230469 195.996094 27.230469 193.460938 L 27.230469 180.328125 C 27.230469 177.796875 29.304688 175.722656 31.839844 175.722656 L 38.214844 175.722656 L 38.214844 178.792969 L 31.839844 178.792969 C 30.996094 178.792969 30.304688 179.484375 30.304688 180.328125 L 30.304688 193.460938 C 30.304688 194.308594 30.996094 195 31.839844 195 L 57.304688 195 Z M 57.304688 198.070312 " fill-opacity="1" fill-rule="nonzero"/></g><g clip-path="url(#ad4f94759a)"><path fill="#03989e" d="M 82.773438 198.070312 L 76.398438 198.070312 L 76.398438 195 L 82.773438 195 C 83.617188 195 84.308594 194.308594 84.308594 193.460938 L 84.308594 180.328125 C 84.308594 179.484375 83.617188 178.792969 82.773438 178.792969 L 57.304688 178.792969 L 57.304688 175.722656 L 82.773438 175.722656 C 85.308594 175.722656 87.382812 177.796875 87.382812 180.328125 L 87.382812 193.460938 C 87.382812 195.996094 85.308594 198.070312 82.773438 198.070312 Z M 82.773438 198.070312 " fill-opacity="1" fill-rule="nonzero"/></g><g transform="matrix(1, 0, 0, 1, 109, 158)"><g clip-path="url(#a316a6d114)"><g fill="#ff66c4" fill-opacity="1"><g transform="translate(0.597864, 20.671122)"><g><path d="M 4.5625 -18.03125 C 8.863281 -18.03125 11.015625 -16.367188 11.015625 -13.046875 C 11.015625 -11.660156 10.613281 -10.515625 9.8125 -9.609375 C 9.007812 -8.710938 7.90625 -8.203125 6.5 -8.078125 L 12.234375 0 L 9.78125 0 L 4.328125 -7.90625 L 3.828125 -7.90625 L 3.828125 0 L 1.8125 0 L 1.8125 -18.03125 Z M 3.828125 -9.6875 L 4.703125 -9.6875 C 6.128906 -9.6875 7.203125 -9.945312 7.921875 -10.46875 C 8.648438 -11 9.015625 -11.8125 9.015625 -12.90625 C 9.015625 -14.101562 8.660156 -14.941406 7.953125 -15.421875 C 7.242188 -15.910156 6.21875 -16.15625 4.875 -16.15625 L 3.828125 -16.15625 Z M 3.828125 -9.6875 "/></g></g></g><g fill="#ff66c4" fill-opacity="1"><g transform="translate(17.142938, 20.671122)"><g><path d="M 11.171875 -18.03125 L 11.171875 -16.15625 L 3.828125 -16.15625 L 3.828125 -10.8125 L 10.953125 -10.8125 L 10.953125 -8.9375 L 3.828125 -8.9375 L 3.828125 -1.859375 L 11.171875 -1.859375 L 11.171875 0 L 1.8125 0 L 1.8125 -18.03125 Z M 11.171875 -18.03125 "/></g></g></g><g fill="#ff66c4" fill-opacity="1"><g transform="translate(33.496747, 20.671122)"><g><path d="M 3.828125 -18.03125 L 3.828125 -1.859375 L 8.796875 -1.859375 L 8.796875 0 L 1.8125 0 L 1.8125 -18.03125 Z M 3.828125 -18.03125 "/></g></g></g><g fill="#ff66c4" fill-opacity="1"><g transform="translate(46.049088, 20.671122)"><g><path d="M 3.875 -18.03125 L 3.875 0 L 1.859375 0 L 1.859375 -18.03125 Z M 3.875 -18.03125 "/></g></g></g><g fill="#ff66c4" fill-opacity="1"><g transform="translate(55.349863, 20.671122)"><g><path d="M 8.46875 -18.890625 L 16.5625 0 L 14.34375 0 L 12.21875 -5.109375 L 4.515625 -5.109375 L 2.34375 0 L 0.140625 0 Z M 5.328125 -6.984375 L 11.421875 -6.984375 L 8.421875 -14.203125 Z M 3.25 -18.03125 Z M 3.25 -18.03125 "/></g></g></g><g fill="#ff66c4" fill-opacity="1"><g transform="translate(75.648589, 20.671122)"><g><path d="M 1.9375 -18.796875 L 16 -4.0625 L 16 -18.03125 L 18 -18.03125 L 18 0.8125 L 3.9375 -13.890625 L 3.9375 0 L 1.9375 0 Z M 1.9375 -18.796875 "/></g></g></g><g fill="#ff66c4" fill-opacity="1"><g transform="translate(99.174976, 20.671122)"><g><path d="M 11 -18.03125 L 11 -16.15625 L 6.59375 -16.15625 L 6.59375 0 L 4.59375 0 L 4.59375 -16.15625 L 0.234375 -16.15625 L 0.234375 -18.03125 Z M 11 -18.03125 "/></g></g></g><g fill="#ff66c4" fill-opacity="1"><g transform="translate(124.949097, 20.671122)"><g><path d="M 4.15625 -19.046875 L 10.703125 -3.921875 L 17.28125 -19.046875 L 20.9375 0 L 18.890625 0 L 16.5625 -12.1875 L 16.515625 -12.1875 L 10.703125 0.734375 L 4.921875 -12.1875 L 4.875 -12.1875 L 2.5625 0 L 0.5 0 Z M 1 -18.03125 Z M 1 -18.03125 "/></g></g></g><g fill="#ff66c4" fill-opacity="1"><g transform="translate(149.957827, 20.671122)"><g><path d="M 11.171875 -18.03125 L 11.171875 -16.15625 L 3.828125 -16.15625 L 3.828125 -10.8125 L 10.953125 -10.8125 L 10.953125 -8.9375 L 3.828125 -8.9375 L 3.828125 -1.859375 L 11.171875 -1.859375 L 11.171875 0 L 1.8125 0 L 1.8125 -18.03125 Z M 11.171875 -18.03125 "/></g></g></g><g fill="#ff66c4" fill-opacity="1"><g transform="translate(166.311628, 20.671122)"><g><path d="M 5.625 -18.03125 C 7.28125 -18.03125 8.703125 -17.773438 9.890625 -17.265625 C 11.085938 -16.765625 12.082031 -16.085938 12.875 -15.234375 C 13.675781 -14.390625 14.269531 -13.429688 14.65625 -12.359375 C 15.039062 -11.285156 15.234375 -10.144531 15.234375 -8.9375 C 15.234375 -7.394531 14.875 -5.957031 14.15625 -4.625 C 13.445312 -3.289062 12.398438 -2.1875 11.015625 -1.3125 C 9.628906 -0.4375 7.820312 0 5.59375 0 L 1.8125 0 L 1.8125 -18.03125 Z M 5.734375 -1.859375 C 6.835938 -1.859375 7.832031 -2.019531 8.71875 -2.34375 C 9.613281 -2.675781 10.40625 -3.171875 11.09375 -3.828125 C 11.78125 -4.484375 12.304688 -5.265625 12.671875 -6.171875 C 13.035156 -7.078125 13.21875 -8.023438 13.21875 -9.015625 C 13.21875 -10.316406 12.925781 -11.5 12.34375 -12.5625 C 11.757812 -13.625 10.929688 -14.488281 9.859375 -15.15625 C 8.785156 -15.820312 7.335938 -16.15625 5.515625 -16.15625 L 3.828125 -16.15625 L 3.828125 -1.859375 Z M 5.734375 -1.859375 "/></g></g></g><g fill="#ff66c4" fill-opacity="1"><g transform="translate(186.108277, 20.671122)"><g><path d="M 3.875 -18.03125 L 3.875 0 L 1.859375 0 L 1.859375 -18.03125 Z M 3.875 -18.03125 "/></g></g></g><g fill="#ff66c4" fill-opacity="1"><g transform="translate(195.409061, 20.671122)"><g><path d="M 15.5625 -14.078125 C 14.800781 -14.847656 13.945312 -15.4375 13 -15.84375 C 12.050781 -16.257812 11.070312 -16.46875 10.0625 -16.46875 C 8.789062 -16.46875 7.585938 -16.125 6.453125 -15.4375 C 5.316406 -14.757812 4.421875 -13.84375 3.765625 -12.6875 C 3.117188 -11.539062 2.796875 -10.316406 2.796875 -9.015625 C 2.796875 -7.734375 3.125 -6.507812 3.78125 -5.34375 C 4.445312 -4.1875 5.34375 -3.265625 6.46875 -2.578125 C 7.601562 -1.890625 8.816406 -1.546875 10.109375 -1.546875 C 11.085938 -1.546875 12.050781 -1.753906 13 -2.171875 C 13.945312 -2.585938 14.800781 -3.175781 15.5625 -3.9375 L 15.5625 -1.453125 C 14.800781 -0.898438 13.953125 -0.46875 13.015625 -0.15625 C 12.085938 0.15625 11.144531 0.3125 10.1875 0.3125 C 8.59375 0.3125 7.066406 -0.0820312 5.609375 -0.875 C 4.148438 -1.675781 2.976562 -2.796875 2.09375 -4.234375 C 1.21875 -5.671875 0.78125 -7.238281 0.78125 -8.9375 C 0.78125 -10.625 1.203125 -12.1875 2.046875 -13.625 C 2.898438 -15.070312 4.054688 -16.21875 5.515625 -17.0625 C 6.972656 -17.914062 8.53125 -18.34375 10.1875 -18.34375 C 11.207031 -18.34375 12.203125 -18.171875 13.171875 -17.828125 C 14.140625 -17.492188 14.9375 -17.070312 15.5625 -16.5625 Z M 15.5625 -14.078125 "/></g></g></g><g fill="#ff66c4" fill-opacity="1"><g transform="translate(216.138126, 20.671122)"><g><path d="M 8.46875 -18.890625 L 16.5625 0 L 14.34375 0 L 12.21875 -5.109375 L 4.515625 -5.109375 L 2.34375 0 L 0.140625 0 Z M 5.328125 -6.984375 L 11.421875 -6.984375 L 8.421875 -14.203125 Z M 3.25 -18.03125 Z M 3.25 -18.03125 "/></g></g></g><g fill="#ff66c4" fill-opacity="1"><g transform="translate(236.436868, 20.671122)"><g><path d="M 3.828125 -18.03125 L 3.828125 -1.859375 L 8.796875 -1.859375 L 8.796875 0 L 1.8125 0 L 1.8125 -18.03125 Z M 3.828125 -18.03125 "/></g></g></g><g fill="#03989e" fill-opacity="1"><g transform="translate(0.597864, 53.779374)"><g><path d="M 4.5625 -18.03125 C 8.863281 -18.03125 11.015625 -16.367188 11.015625 -13.046875 C 11.015625 -11.660156 10.613281 -10.515625 9.8125 -9.609375 C 9.007812 -8.710938 7.90625 -8.203125 6.5 -8.078125 L 12.234375 0 L 9.78125 0 L 4.328125 -7.90625 L 3.828125 -7.90625 L 3.828125 0 L 1.8125 0 L 1.8125 -18.03125 Z M 3.828125 -9.6875 L 4.703125 -9.6875 C 6.128906 -9.6875 7.203125 -9.945312 7.921875 -10.46875 C 8.648438 -11 9.015625 -11.8125 9.015625 -12.90625 C 9.015625 -14.101562 8.660156 -14.941406 7.953125 -15.421875 C 7.242188 -15.910156 6.21875 -16.15625 4.875 -16.15625 L 3.828125 -16.15625 Z M 3.828125 -9.6875 "/></g></g></g><g fill="#03989e" fill-opacity="1"><g transform="translate(17.142938, 53.779374)"><g><path d="M 11.171875 -18.03125 L 11.171875 -16.15625 L 3.828125 -16.15625 L 3.828125 -10.8125 L 10.953125 -10.8125 L 10.953125 -8.9375 L 3.828125 -8.9375 L 3.828125 -1.859375 L 11.171875 -1.859375 L 11.171875 0 L 1.8125 0 L 1.8125 -18.03125 Z M 11.171875 -18.03125 "/></g></g></g><g fill="#03989e" fill-opacity="1"><g transform="translate(33.496747, 53.779374)"><g><path d="M 1.9375 -18.796875 L 16 -4.0625 L 16 -18.03125 L 18 -18.03125 L 18 0.8125 L 3.9375 -13.890625 L 3.9375 0 L 1.9375 0 Z M 1.9375 -18.796875 "/></g></g></g><g fill="#03989e" fill-opacity="1"><g transform="translate(57.023135, 53.779374)"><g><path d="M 11 -18.03125 L 11 -16.15625 L 6.59375 -16.15625 L 6.59375 0 L 4.59375 0 L 4.59375 -16.15625 L 0.234375 -16.15625 L 0.234375 -18.03125 Z M 11 -18.03125 "/></g></g></g><g fill="#03989e" fill-opacity="1"><g transform="translate(71.846793, 53.779374)"><g><path d="M 8.46875 -18.890625 L 16.5625 0 L 14.34375 0 L 12.21875 -5.109375 L 4.515625 -5.109375 L 2.34375 0 L 0.140625 0 Z M 5.328125 -6.984375 L 11.421875 -6.984375 L 8.421875 -14.203125 Z M 3.25 -18.03125 Z M 3.25 -18.03125 "/></g></g></g><g fill="#03989e" fill-opacity="1"><g transform="translate(92.145519, 53.779374)"><g><path d="M 3.828125 -18.03125 L 3.828125 -1.859375 L 8.796875 -1.859375 L 8.796875 0 L 1.8125 0 L 1.8125 -18.03125 Z M 3.828125 -18.03125 "/></g></g></g><g fill="#03989e" fill-opacity="1"><g transform="translate(104.69786, 53.779374)"><g><path d="M 10 -14.515625 C 9.59375 -15.210938 9.144531 -15.710938 8.65625 -16.015625 C 8.175781 -16.316406 7.59375 -16.46875 6.90625 -16.46875 C 6.03125 -16.46875 5.304688 -16.195312 4.734375 -15.65625 C 4.171875 -15.113281 3.890625 -14.453125 3.890625 -13.671875 C 3.890625 -13.066406 4.125 -12.546875 4.59375 -12.109375 C 5.070312 -11.679688 5.644531 -11.316406 6.3125 -11.015625 C 6.976562 -10.710938 7.582031 -10.445312 8.125 -10.21875 C 8.664062 -10 9.296875 -9.664062 10.015625 -9.21875 C 10.734375 -8.78125 11.28125 -8.222656 11.65625 -7.546875 C 12.039062 -6.878906 12.234375 -6.117188 12.234375 -5.265625 C 12.234375 -4.273438 11.984375 -3.347656 11.484375 -2.484375 C 10.992188 -1.617188 10.3125 -0.9375 9.4375 -0.4375 C 8.5625 0.0625 7.609375 0.3125 6.578125 0.3125 C 5.160156 0.3125 3.941406 -0.101562 2.921875 -0.9375 C 1.910156 -1.78125 1.253906 -2.914062 0.953125 -4.34375 L 2.921875 -4.90625 C 3.078125 -3.914062 3.484375 -3.109375 4.140625 -2.484375 C 4.804688 -1.859375 5.601562 -1.546875 6.53125 -1.546875 C 7.53125 -1.546875 8.394531 -1.890625 9.125 -2.578125 C 9.863281 -3.265625 10.234375 -4.09375 10.234375 -5.0625 C 10.234375 -5.925781 9.953125 -6.632812 9.390625 -7.1875 C 8.835938 -7.738281 7.816406 -8.304688 6.328125 -8.890625 C 4.847656 -9.484375 3.738281 -10.144531 3 -10.875 C 2.257812 -11.613281 1.890625 -12.570312 1.890625 -13.75 C 1.890625 -15.082031 2.382812 -16.179688 3.375 -17.046875 C 4.363281 -17.910156 5.550781 -18.34375 6.9375 -18.34375 C 7.957031 -18.34375 8.859375 -18.101562 9.640625 -17.625 C 10.429688 -17.144531 11.082031 -16.445312 11.59375 -15.53125 Z M 10 -14.515625 "/></g></g></g></g></g></svg>